HIERARCHY
ROOT SpineBase
{
  OFFSET 0.000000 0.000000 0.000000
  CHANNELS 6 Xposition Yposition Zposition Zrotation Xrotation Yrotation
  JOINT SpineMid
  {
    OFFSET 0.000000 28.875881 0.000000
    CHANNELS 3 Zrotation Xrotation Yrotation
    JOINT SpineShoulder
    {
      OFFSET 0.067937 21.481073 -0.676849
      CHANNELS 3 Zrotation Xrotation Yrotation
      JOINT Neck
      {
        OFFSET 0.013084 7.110478 -0.512808
        CHANNELS 3 Zrotation Xrotation Yrotation
        JOINT Head
        {
          OFFSET -2.502482 11.097808 -0.288633
          CHANNELS 3 Zrotation Xrotation Yrotation
          End Site
          {
            OFFSET 0 0 0
          }
        }
      }
      JOINT ShoulderLeft
      {
        OFFSET -16.347031 -2.651276 5.818319
        CHANNELS 3 Zrotation Xrotation Yrotation
        JOINT ElbowLeft
        {
          OFFSET -2.769517 -22.692105 -0.059973
          CHANNELS 3 Zrotation Xrotation Yrotation
          JOINT WristLeft
          {
            OFFSET 7.246449 -14.318820 -21.710672
            CHANNELS 3 Zrotation Xrotation Yrotation
            JOINT HandLeft
            {
              OFFSET 3.920646 -0.490602 -1.100311
              CHANNELS 3 Zrotation Xrotation Yrotation
              JOINT HandTipLeft
              {
                OFFSET 5.242362 3.897703 -4.899961
                CHANNELS 3 Zrotation Xrotation Yrotation
                End Site
                {
                  OFFSET 0 0 0
                }
              }
              JOINT ThumbLeft
              {
                OFFSET 4.112831 -2.780544 3.960736
                CHANNELS 3 Zrotation Xrotation Yrotation
                End Site
                {
                  OFFSET 0 0 0
                }
              }
            }
          }
        }
      }
      JOINT ShoulderRight
      {
        OFFSET 14.910535 -0.749339 -5.920863
        CHANNELS 3 Zrotation Xrotation Yrotation
        JOINT ElbowRight
        {
          OFFSET 6.128629 -19.825518 -3.112445
          CHANNELS 3 Zrotation Xrotation Yrotation
          JOINT WristRight
          {
            OFFSET -9.899083 -14.117926 -8.191925
            CHANNELS 3 Zrotation Xrotation Yrotation
            JOINT HandRight
            {
              OFFSET -4.131424 -0.857903 3.405442
              CHANNELS 3 Zrotation Xrotation Yrotation
              JOINT HandTipRight
              {
                OFFSET -5.948983 -1.319263 -5.156512
                CHANNELS 3 Zrotation Xrotation Yrotation
                End Site
                {
                  OFFSET 0 0 0
                }
              }
              JOINT ThumbRight
              {
                OFFSET 0.838600 -4.859920 1.289145
                CHANNELS 3 Zrotation Xrotation Yrotation
                End Site
                {
                  OFFSET 0 0 0
                }
              }
            }
          }
        }
      }
    }
  }
  JOINT HipLeft
  {
    OFFSET -5.751639 0.012537 -1.193521
    CHANNELS 3 Zrotation Xrotation Yrotation
    JOINT KneeLeft
    {
      OFFSET -5.232945 -29.532657 3.663365
      CHANNELS 3 Zrotation Xrotation Yrotation
      JOINT AnkleLeft
      {
        OFFSET -0.014469 -37.413052 7.219961
        CHANNELS 3 Zrotation Xrotation Yrotation
        JOINT FootLeft
        {
          OFFSET -2.503710 -7.709446 -5.388018
          CHANNELS 3 Zrotation Xrotation Yrotation
          End Site
          {
            OFFSET 0 0 0
          }
        }
      }
    }
  }
  JOINT HipRight
  {
    OFFSET 5.218181 1.286072 -5.263302
    CHANNELS 3 Zrotation Xrotation Yrotation
    JOINT KneeRight
    {
      OFFSET 6.536234 -27.822111 2.108675
      CHANNELS 3 Zrotation Xrotation Yrotation
      JOINT AnkleRight
      {
        OFFSET 2.390684 -35.878263 5.797077
        CHANNELS 3 Zrotation Xrotation Yrotation
        JOINT FootRight
        {
          OFFSET -3.743565 -4.833748 -9.538660
          CHANNELS 3 Zrotation Xrotation Yrotation
          End Site
          {
            OFFSET 0 0 0
          }
        }
      }
    }
  }
}
MOTION
Frames: 6
Frame Time: 0.033333
32.579366 75.932094 371.712827 -1.184946 2.784972 21.363309 0.463763 -0.188708 -21.351984 0.167474 0.190721 -0.007468 0.692422 8.119262 2.566114 0.000000 0.000000 0.000000 -26.752893 5.163262 -0.322602 37.472738 27.652667 1.422915 56.767186 -14.715104 7.116236 -50.395651 -26.607138 35.978819 0.000000 0.000000 0.000000 0.000000 0.000000 0.000000 -17.656736 19.629452 12.931217 -55.816976 -13.632394 3.799285 40.667186 -46.249617 12.808463 -0.525545 61.743030 -5.850250 0.000000 0.000000 0.000000 0.000000 0.000000 0.000000 0.841639 -7.674591 -20.246722 -2.086931 5.336328 -0.911125 -6.022908 12.010547 0.240245 0.000000 0.000000 0.000000 -3.028803 -2.796324 -21.936266 4.929119 -2.367539 0.534622 -1.529801 4.491069 -1.706709 0.000000 0.000000 0.000000
32.376382 75.870531 371.620234 -1.252470 2.910824 21.362732 0.481234 -0.193120 -21.349285 0.189909 0.193722 -0.006882 1.363874 8.235993 2.610717 0.000000 0.000000 0.000000 -27.185473 4.239866 -0.467896 37.678153 28.886493 1.648648 57.392612 -15.416470 7.211872 -50.488604 -26.718392 36.166034 0.000000 0.000000 0.000000 0.000000 0.000000 0.000000 -17.334890 19.719982 12.894714 -56.200351 -13.919775 3.596935 41.510349 -45.135570 12.023291 -4.719265 60.844835 -1.576034 0.000000 0.000000 0.000000 0.000000 0.000000 0.000000 1.134346 -8.240183 -20.106982 -2.353314 5.924898 -0.983172 -6.091999 6.699178 1.459851 0.000000 0.000000 0.000000 -3.092542 -3.130635 -21.999049 4.890275 -2.077469 0.568213 -2.343459 8.955162 -3.174079 0.000000 0.000000 0.000000
32.153440 75.829930 371.530423 -1.282507 3.047913 21.345930 0.488304 -0.194470 -21.330505 0.203496 0.192587 -0.006045 1.864199 8.182281 2.621899 0.000000 0.000000 0.000000 -27.238701 4.039932 -0.538940 36.747628 28.886807 2.784515 53.068511 -11.404493 13.710277 -50.777396 -23.851154 25.939064 0.000000 0.000000 0.000000 0.000000 0.000000 0.000000 -17.143342 19.759010 12.873107 -56.617201 -14.203552 3.459105 43.651460 -43.304993 11.141360 -14.728669 65.696792 3.762296 0.000000 0.000000 0.000000 0.000000 0.000000 0.000000 1.308752 -8.674810 -19.990311 -2.481740 6.352229 -1.028210 -5.983299 4.738571 1.709033 0.000000 0.000000 0.000000 -3.226816 -3.475643 -22.057800 5.255132 -1.772771 0.669402 -3.599694 13.955028 -4.608246 0.000000 0.000000 0.000000
31.941339 75.771535 371.455943 -1.273863 3.164398 21.112204 0.484344 -0.177914 -21.095827 0.202682 0.190093 -0.005773 2.160137 8.008952 2.609676 0.000000 0.000000 0.000000 -26.889566 4.181427 -0.569665 35.295096 28.696294 4.162821 48.124916 -8.851994 19.817987 -49.656650 -21.093974 16.951009 0.000000 0.000000 0.000000 0.000000 0.000000 0.000000 -17.134533 19.733666 12.880234 -56.895204 -14.510904 3.379859 42.931771 -42.370298 7.836080 -20.871033 65.021801 10.590311 0.000000 0.000000 0.000000 0.000000 0.000000 0.000000 1.513062 -9.064055 -19.652570 -2.567699 6.596203 -1.065929 -3.498573 -4.049574 2.430684 0.000000 0.000000 0.000000 -3.433085 -3.795963 -21.912470 5.697741 -0.840497 0.804783 -4.476237 13.855106 -4.103354 0.000000 0.000000 0.000000
31.705882 75.752847 371.363048 -1.275021 3.300781 20.933503 0.480638 -0.163499 -20.915928 0.203162 0.176931 -0.005689 2.146414 7.902251 2.621471 0.000000 0.000000 0.000000 -26.434117 4.401064 -0.594614 33.506115 27.888809 5.714216 44.568151 -7.579055 23.564578 -48.056459 -19.263426 10.950955 0.000000 0.000000 0.000000 0.000000 0.000000 0.000000 -17.254631 19.645234 12.907219 -57.196496 -14.497310 3.404121 43.053826 -42.001270 6.144304 -21.878584 62.766835 12.678295 0.000000 0.000000 0.000000 0.000000 0.000000 0.000000 1.661720 -9.539872 -19.361363 -2.594815 6.835698 -1.111398 -2.676739 -9.868466 3.651072 0.000000 0.000000 0.000000 -3.628147 -4.259744 -21.849474 6.093564 0.045665 0.941229 -4.264220 11.243376 -3.998035 0.000000 0.000000 0.000000
31.482593 75.734741 371.314583 -1.253450 3.402443 20.730023 0.468517 -0.137369 -20.712388 0.194360 0.153665 -0.006236 2.082496 7.779068 2.621085 0.000000 0.000000 0.000000 -26.122384 4.197102 -0.653436 32.536235 28.052254 6.492019 43.386589 -7.648809 24.876698 -47.272958 -18.577306 8.800960 0.000000 0.000000 0.000000 0.000000 0.000000 0.000000 -17.401674 19.592804 12.953216 -57.360197 -14.739759 3.371168 45.948587 -41.267961 8.425188 -21.520145 63.815995 8.652399 0.000000 0.000000 0.000000 0.000000 0.000000 0.000000 1.643871 -9.941685 -19.081386 -2.494299 7.223067 -1.154136 -3.611868 -5.726140 2.646172 0.000000 0.000000 0.000000 -3.521782 -4.539462 -21.659284 6.219730 0.491045 1.006791 -4.518752 10.983731 -4.236309 0.000000 0.000000 0.000000
